<svg id="Capa_1" data-name="Capa 1" xmlns="http://www.w3.org/2000/svg" xmlns:xlink="http://www.w3.org/1999/xlink" viewBox="0 0 500 500"><defs><style>.cls-1{fill:#d44f20;}.cls-2,.cls-3,.cls-4,.cls-6,.cls-7{stroke-miterlimit:10;}.cls-2,.cls-3,.cls-4{stroke-width:2px;}.cls-2{stroke:url(#Degradado_sin_nombre_57);}.cls-3{stroke:url(#Degradado_sin_nombre_57-2);}.cls-4{stroke:url(#Degradado_sin_nombre_57-3);}.cls-5{fill:url(#Degradado_sin_nombre_83);}.cls-6,.cls-7{stroke:#000;stroke-width:0.96px;}.cls-6{fill:url(#Degradado_sin_nombre_57-4);}.cls-7{fill:url(#Degradado_sin_nombre_57-5);}</style><linearGradient id="Degradado_sin_nombre_57" x1="53.02" y1="170.56" x2="341.63" y2="170.56" gradientTransform="translate(82.81 -63.78) rotate(23.12)" gradientUnits="userSpaceOnUse"><stop offset="0" stop-color="#420161"/><stop offset="0.22" stop-color="#7e001e"/><stop offset="0.41" stop-color="#063"/><stop offset="0.64" stop-color="#e49604"/><stop offset="0.83" stop-color="#264490"/><stop offset="1" stop-color="#420161"/></linearGradient><linearGradient id="Degradado_sin_nombre_57-2" x1="143.34" y1="170.56" x2="378.92" y2="170.56" gradientTransform="translate(27.37 -35.92) rotate(8.3)" xlink:href="#Degradado_sin_nombre_57"/><linearGradient id="Degradado_sin_nombre_57-3" x1="191.66" y1="201.03" x2="462.53" y2="201.03" gradientTransform="translate(-45.49 108.38) rotate(-17.61)" xlink:href="#Degradado_sin_nombre_57"/><linearGradient id="Degradado_sin_nombre_83" x1="301.61" y1="255.1" x2="44.42" y2="574.29" gradientUnits="userSpaceOnUse"><stop offset="0.2" stop-color="#d44f20"/><stop offset="0.3" stop-color="#d14d21"/><stop offset="0.39" stop-color="#c64826"/><stop offset="0.47" stop-color="#b53e2e"/><stop offset="0.55" stop-color="#9c3139"/><stop offset="0.62" stop-color="#7d2047"/><stop offset="0.65" stop-color="#6f194d"/><stop offset="0.67" stop-color="#6a164f"/><stop offset="0.79" stop-color="#540b59"/><stop offset="0.9" stop-color="#47035f"/><stop offset="1" stop-color="#420161"/></linearGradient><linearGradient id="Degradado_sin_nombre_57-4" x1="352.91" y1="230.5" x2="244.91" y2="186.84" gradientTransform="matrix(1, 0, 0, 1, 0, 0)" xlink:href="#Degradado_sin_nombre_57"/><linearGradient id="Degradado_sin_nombre_57-5" x1="-40.32" y1="300.97" x2="599.26" y2="42.07" gradientTransform="matrix(1, 0, 0, 1, 0, 0)" xlink:href="#Degradado_sin_nombre_57"/></defs><path class="cls-1" d="M177.78,363.94,170,348.26a26.87,26.87,0,0,1,16.3-37.67c34.81-10.48,87.12-24.15,86.11-11.34-1.27,16.13-3.25,39.33-3.85,46.27a2.47,2.47,0,0,0,1.8,2.59h0a2.51,2.51,0,0,0,3.08-1.59c9.54-27.76,23-67.71,27.43-75.13,5.54-9.2,8.68,12.67,21.15,7.16,19.46-8.61-22.69,88.95-29.39,118.07-.13.53-2.14-1.73-2.56-1.38C273.32,409.22,227,443.47,188,472a102.81,102.81,0,0,1-121.46-.11L43,454.65a2.53,2.53,0,0,1,1-4.51l67.73-14.34a2.64,2.64,0,0,0,.68-.25l12.32-6.69a2.46,2.46,0,0,0,1.11-1.25c7.74-18.57,25.55-29.47,29-31.43a2.44,2.44,0,0,0,.91-.92c1.94-3.52,12.18-21.6,21.23-28.15A2.52,2.52,0,0,0,177.78,363.94Z"/><rect class="cls-2" x="98.77" y="32.22" width="197.1" height="276.68" rx="5.29" transform="translate(-51.12 91.17) rotate(-23.12)"/><rect class="cls-3" x="162.58" y="32.22" width="197.1" height="276.68" rx="5.29" transform="translate(-21.9 39.5) rotate(-8.3)"/><rect class="cls-4" x="228.55" y="62.69" width="197.1" height="276.68" rx="5.29" transform="translate(76.15 -89.54) rotate(17.61)"/><path class="cls-5" d="M181.59,344.48c18.4-16.35,32.2-12.78,33.73-38.33s14.38-52.14,23-55.21,24.5-2.55,19.39,29.65-15.35,57-9.72,74.78c0,0,48.78,11.6,44.59,41.25l-104.2,77.22A101.07,101.07,0,0,1,67,473L38.47,451.31S91,440.92,117.14,424.65C117.14,424.65,163.19,360.84,181.59,344.48Z"/><path class="cls-6" d="M301.37,255.67l22-77.09,1.39-3.47,23.29,7.68q13.51,4.22,19.57,11.26t2.83,17.37a15.67,15.67,0,0,1-6.88,9.17,25.19,25.19,0,0,1-12,3.32l-.15.45A26.62,26.62,0,0,1,361.73,236q3,6.84.36,15.21-3.57,11.46-12.14,14.52t-21.18-.87Zm24-.06a20,20,0,0,0,7.53,1.09,11.13,11.13,0,0,0,5.4-1.78,12.24,12.24,0,0,0,3.71-4.06,27.9,27.9,0,0,0,2.53-5.88q2.46-7.92-.47-14.24t-10.43-12.56l.14-.46c5.05,1.58,9.15,1.32,12.31-.75s5.45-5.37,6.86-9.88q1.86-6,.36-10.46t-8.6-6.7l-4.13-1.29L320.2,254Z"/><path class="cls-7" d="M269.6,195.74l25.34-80.17,25.32,8.06a43,43,0,0,1,14.92,8,35.64,35.64,0,0,1,9.36,12,37.69,37.69,0,0,1,3.52,15.06,50.52,50.52,0,0,1-2.56,17.15A53.66,53.66,0,0,1,337.44,192a36.54,36.54,0,0,1-11.57,10.18,33.12,33.12,0,0,1-14.44,4,47.29,47.29,0,0,1-16.69-2.42Zm40.28-67.22L289.1,193.76l8,2.55q9.84,3.13,17.05-3.46t12.46-23.07q5.5-17.28,3.31-26.43t-12-12.28Z"/></svg>